<?xml version="1.0" encoding="UTF-8" standalone="no"?>
<svg
   xmlns:dc="http://purl.org/dc/elements/1.1/"
   xmlns:cc="http://creativecommons.org/ns#"
   xmlns:rdf="http://www.w3.org/1999/02/22-rdf-syntax-ns#"
   xmlns:svg="http://www.w3.org/2000/svg"
   xmlns="http://www.w3.org/2000/svg"
   xmlns:sodipodi="http://sodipodi.sourceforge.net/DTD/sodipodi-0.dtd"
   xmlns:inkscape="http://www.inkscape.org/namespaces/inkscape"
   id="svg5273"
   version="1.1"
   viewBox="0 0 10.583334 10.583333"
   height="40"
   width="40"
   sodipodi:docname="brandapp_logo_white.svg"
   inkscape:version="0.92.4 (5da689c313, 2019-01-14)">
  <sodipodi:namedview
     pagecolor="#ffffff"
     bordercolor="#666666"
     borderopacity="1"
     objecttolerance="10"
     gridtolerance="10"
     guidetolerance="10"
     inkscape:pageopacity="0"
     inkscape:pageshadow="2"
     inkscape:window-width="1920"
     inkscape:window-height="1016"
     id="namedview2373"
     showgrid="false"
     inkscape:zoom="5.6568542"
     inkscape:cx="-14.997095"
     inkscape:cy="14.034362"
     inkscape:window-x="0"
     inkscape:window-y="27"
     inkscape:window-maximized="1"
     inkscape:current-layer="svg5273"
     fit-margin-top="0"
     fit-margin-left="0"
     fit-margin-right="0"
     fit-margin-bottom="0"
     units="px" />
  <defs
     id="defs5267" />
  <metadata
     id="metadata5270">
    <rdf:RDF>
      <cc:Work
         rdf:about="">
        <dc:format>image/svg+xml</dc:format>
        <dc:type
           rdf:resource="http://purl.org/dc/dcmitype/StillImage" />
        <dc:title></dc:title>
      </cc:Work>
    </rdf:RDF>
  </metadata>
  <g
     style="font-style:normal;font-weight:normal;font-size:27.62812614px;line-height:110.00000238%;font-family:sans-serif;letter-spacing:-0.99461263px;word-spacing:0px;fill:#ffffff;fill-opacity:1;stroke:none;stroke-width:1.1382575"
     transform="matrix(0.2334334,0,0,0.23344699,-70.861907,-69.262489)"
     id="layer1">
    <path
       inkscape:connector-curvature="0"
       style="opacity:1;fill:#ffffff;fill-opacity:1;stroke:none;stroke-width:3.18712068;stroke-linecap:round;stroke-linejoin:round;stroke-miterlimit:4;stroke-dasharray:none;stroke-dashoffset:0;stroke-opacity:1"
       d="m 326.2326,296.69472 c -12.5193,-1.5e-4 -22.6681,10.14703 -22.6689,22.66615 -10e-5,12.51977 10.1492,22.66908 22.6689,22.66891 12.5198,1.7e-4 22.6688,-10.14914 22.6688,-22.66891 -0.001,-12.51912 -10.1497,-22.6663 -22.6688,-22.66615 z m -1.8817,12.60998 h 3.0941 c 0.1799,0 0.3357,0.0666 0.4663,0.19751 0.1306,0.13104 0.1975,0.2862 0.1975,0.46632 v 6.04303 c 0.1152,-0.14742 0.2585,-0.30262 0.4389,-0.46633 0.18,-0.18013 0.4019,-0.34645 0.6639,-0.49375 0.262,-0.1474 0.5752,-0.26926 0.9353,-0.36758 0.3603,-0.0982 0.7761,-0.14813 1.2509,-0.14813 0.7369,0 1.4352,0.11643 2.0902,0.34564 0.6548,0.22918 1.226,0.57853 1.7173,1.05335 0.491,0.45851 0.8846,1.04326 1.1794,1.74735 0.311,0.70398 0.4834,1.53837 0.5157,2.50443 0.014,0.24559 0.025,0.58104 0.025,1.00672 0,0.40939 -0.014,0.73636 -0.025,0.98203 -0.032,0.96598 -0.2047,1.80034 -0.5157,2.50444 -0.2948,0.70407 -0.6884,1.29171 -1.1794,1.76654 -0.4913,0.45852 -1.0625,0.80489 -1.7173,1.03415 -0.655,0.21286 -1.3533,0.3182 -2.0902,0.3182 -0.5403,0 -0.9978,-0.0472 -1.3743,-0.14538 -0.3603,-0.0816 -0.6735,-0.18991 -0.9354,-0.32095 -0.2458,-0.14739 -0.4563,-0.30252 -0.6363,-0.46632 -0.1638,-0.18004 -0.319,-0.36027 -0.4665,-0.54038 v 0.56507 c 0,0.18015 -0.067,0.33529 -0.1974,0.46632 -0.1307,0.13104 -0.2864,0.19751 -0.4663,0.19751 h -2.9707 c -0.1801,-10e-6 -0.3385,-0.0666 -0.4691,-0.19751 -0.1306,-0.13103 -0.1948,-0.28617 -0.1948,-0.46632 v -16.92213 c 0,-0.18012 0.065,-0.33528 0.1948,-0.46632 0.1306,-0.13104 0.289,-0.19751 0.4691,-0.19751 z m -5.0803,1.69249 v 0 c 0.084,-0.0112 0.1686,-10e-4 0.2579,0.0219 0.1789,0.048 0.3126,0.14851 0.4032,0.30447 l 1.9833,3.43161 0.069,8.78338 -5.8785,-10.00405 c -0.091,-0.1559 -0.1124,-0.32326 -0.066,-0.50199 0.049,-0.179 0.1515,-0.31325 0.3073,-0.40323 l 2.6771,-1.54984 c 0.077,-0.0449 0.161,-0.0719 0.2443,-0.0823 z m -6.4051,5.13782 c 0.083,0.01 0.1632,0.0374 0.2414,0.0823 l 3.4343,1.98052 4.4493,7.57092 -10.0945,-5.72209 c -0.157,-0.0893 -0.2552,-0.22528 -0.3045,-0.40324 -0.046,-0.17958 -0.027,-0.34618 0.063,-0.50198 l 1.5443,-2.67999 c 0.045,-0.0775 0.1012,-0.14412 0.1673,-0.19476 v 0 c 0.067,-0.0518 0.1441,-0.0879 0.2331,-0.1125 0.09,-0.0239 0.1773,-0.0292 0.2606,-0.0192 z m 17.4268,2.20818 c -0.3602,0 -0.6706,0.0579 -0.9326,0.17282 -0.262,0.1146 -0.4811,0.26978 -0.661,0.46632 -0.1638,0.18012 -0.2968,0.38519 -0.3951,0.61445 -0.098,0.22927 -0.1611,0.46752 -0.1948,0.7132 -0.032,0.24557 -0.052,0.53107 -0.052,0.85859 0,0.32741 0.02,0.61292 0.052,0.85859 0.034,0.24557 0.097,0.48395 0.1948,0.7132 0.098,0.22927 0.2313,0.4426 0.3951,0.63914 0.1799,0.18001 0.399,0.32703 0.661,0.44164 0.262,0.1146 0.5724,0.17282 0.9326,0.17282 0.7695,0 1.3212,-0.21345 1.6487,-0.63915 0.3271,-0.42569 0.513,-0.92472 0.5622,-1.49773 0.051,-0.45851 0.051,-0.9186 0,-1.37702 -0.049,-0.57309 -0.2348,-1.07204 -0.5622,-1.49773 -0.3278,-0.42571 -0.8792,-0.63914 -1.6487,-0.63914 z"
       id="path39249-1-1" />
  </g>
</svg>
